<?xml version="1.0" standalone="no"?><!DOCTYPE svg PUBLIC "-//W3C//DTD SVG 1.1//EN" "http://www.w3.org/Graphics/SVG/1.1/DTD/svg11.dtd"><svg class="icon" width="200px" height="187.55px" viewBox="0 0 1092 1024" version="1.1" xmlns="http://www.w3.org/2000/svg"><path fill="#1296db" d="M204.8 307.2L675.669333 57.173333A51.2 51.2 0 0 1 750.933333 102.4v834.048a51.2 51.2 0 0 1-76.288 44.714667L204.8 716.8C91.6992 716.8 0 625.1008 0 512s91.6992-204.8 204.8-204.8z m836.266667 247.466667H827.562667a42.666667 42.666667 0 1 1 0-85.333334H1041.066667a42.666667 42.666667 0 1 1 0 85.333334z m-38.4 465.066666A42.496 42.496 0 0 1 972.8 1006.933333l-145.066667-145.066666A42.666667 42.666667 0 0 1 887.466667 802.133333l145.066666 145.066667a43.008 43.008 0 0 1 0 60.416 42.496 42.496 0 0 1-29.866666 12.117333z m-145.066667-785.066666a42.496 42.496 0 0 1-30.208-12.8 43.008 43.008 0 0 1 0-60.416L972.8 17.066667a42.717867 42.717867 0 0 1 60.416 60.416L887.466667 221.866667a42.496 42.496 0 0 1-29.866667 12.8zM290.133333 621.568a34.133333 34.133333 0 0 0 23.722667-9.898667 153.6 153.6 0 1 0-216.746667-217.258666 34.1504 34.1504 0 0 0 48.298667 48.298666 85.333333 85.333333 0 1 1 120.661333 120.661334 34.133333 34.133333 0 0 0 0 48.298666 34.133333 34.133333 0 0 0 24.064 9.898667z"  /></svg>