<?xml version="1.0" standalone="no"?><!DOCTYPE svg PUBLIC "-//W3C//DTD SVG 1.1//EN" "http://www.w3.org/Graphics/SVG/1.1/DTD/svg11.dtd"><svg class="icon" width="200px" height="200.00px" viewBox="0 0 1024 1024" version="1.1" xmlns="http://www.w3.org/2000/svg"><path fill="#d81e06" d="M877.714286 475.428571l0 402.285714L109.714286 877.714286 109.714286 146.285714l585.142857 0L694.857143 73.142857 73.142857 73.142857c-20.214857 0-36.571429 16.374857-36.571429 36.571429l0 804.571429c0 20.214857 16.356571 36.571429 36.571429 36.571429l841.142857 0c20.214857 0 36.571429-16.356571 36.571429-36.571429L950.857143 475.428571 877.714286 475.428571zM1024 60.571429C1024 47.3216 1013.249829 36.571429 1000 36.571429c-6.286629 0-11.7504 2.731886-16.071314 6.696229l-471.572114 529.517714L329.142857 390.749257l-127.285029 124.679314 51.856457 0 257.929143 240.786286L1020.642743 72.213943C1022.6432 68.714057 1024 64.8576 1024 60.571429z" /></svg>