<?xml version="1.0" standalone="no"?><!DOCTYPE svg PUBLIC "-//W3C//DTD SVG 1.1//EN" "http://www.w3.org/Graphics/SVG/1.1/DTD/svg11.dtd"><svg class="icon" width="200px" height="200.00px" viewBox="0 0 1024 1024" version="1.1" xmlns="http://www.w3.org/2000/svg"><path d="M512 512m-512 0a512 512 0 1 0 1024 0 512 512 0 1 0-1024 0Z" fill="#FFA726" /><path d="M671.744 300.544L352.6656 686.08l313.5488 314.2656a512.9216 512.9216 0 0 0 342.3232-363.008z" fill="#EF9926" /><path d="M346.4192 293.6832m20.48 0l290.0992 0q20.48 0 20.48 20.48l0 356.864q0 20.48-20.48 20.48l-290.0992 0q-20.48 0-20.48-20.48l0-356.864q0-20.48 20.48-20.48Z" fill="#FFFFFF" /><path d="M403.5584 256.6144m20.1728 0l0 0q20.1728 0 20.1728 20.1728l0 33.6896q0 20.1728-20.1728 20.1728l0 0q-20.1728 0-20.1728-20.1728l0-33.6896q0-20.1728 20.1728-20.1728Z" fill="#26A69A" /><path d="M581.632 256.6144m20.1728 0l0 0q20.1728 0 20.1728 20.1728l0 33.6896q0 20.1728-20.1728 20.1728l0 0q-20.1728 0-20.1728-20.1728l0-33.6896q0-20.1728 20.1728-20.1728Z" fill="#26A69A" /><path d="M403.3536 484.352m10.24 0l96.256 0q10.24 0 10.24 10.24l0 0q0 10.24-10.24 10.24l-96.256 0q-10.24 0-10.24-10.24l0 0q0-10.24 10.24-10.24Z" fill="#7E57C2" /><path d="M403.3536 550.7072m10.24 0l196.9152 0q10.24 0 10.24 10.24l0 0q0 10.24-10.24 10.24l-196.9152 0q-10.24 0-10.24-10.24l0 0q0-10.24 10.24-10.24Z" fill="#7E57C2" /><path d="M403.3536 616.96m10.24 0l196.9152 0q10.24 0 10.24 10.24l0 0q0 10.24-10.24 10.24l-196.9152 0q-10.24 0-10.24-10.24l0 0q0-10.24 10.24-10.24Z" fill="#7E57C2" /><path d="M419.2256 401.3056m-12.8 0a12.8 12.8 0 1 0 25.6 0 12.8 12.8 0 1 0-25.6 0Z" fill="#7E57C2" /><path d="M512 401.3056m-12.8 0a12.8 12.8 0 1 0 25.6 0 12.8 12.8 0 1 0-25.6 0Z" fill="#7E57C2" /><path d="M609.1776 401.3056m-12.8 0a12.8 12.8 0 1 0 25.6 0 12.8 12.8 0 1 0-25.6 0Z" fill="#7E57C2" /></svg>